<svg xmlns="http://www.w3.org/2000/svg" xmlns:graph="ns_graphs;" xmlns:i="ns_ai;" xmlns:x="ns_extend;" xmlns:xlink="http://www.w3.org/1999/xlink" id="Layer_1" x="0" y="0" version="1.1" viewBox="0 0 75 75" style="enable-background:new 0 0 75 75" xml:space="preserve"><style type="text/css">.st0,.st1{fill-rule:evenodd;clip-rule:evenodd;fill:#39594d}.st1{fill:#d18ee2}.st2{fill:#ff7759}</style><metadata><sfw xmlns="ns_sfw;"><slices/><sliceSourceBounds width="75" height="75" x="-347.6" y=".5" bottomLeftOrigin="true"/></sfw></metadata><g><g><g><path d="M24.3,44.7c2,0,6-0.1,11.6-2.4c6.5-2.7,19.3-7.5,28.6-12.5c6.5-3.5,9.3-8.1,9.3-14.3C73.8,7,66.9,0,58.3,0 h-36C10,0,0,10,0,22.3S9.4,44.7,24.3,44.7z" class="st0"/><path d="M30.4,60c0-6,3.6-11.5,9.2-13.8l11.3-4.7C62.4,36.8,75,45.2,75,57.6C75,67.2,67.2,75,57.6,75l-12.3,0 C37.1,75,30.4,68.3,30.4,60z" class="st1"/><path d="M12.9,47.6L12.9,47.6C5.8,47.6,0,53.4,0,60.5v1.7C0,69.2,5.8,75,12.9,75h0c7.1,0,12.9-5.8,12.9-12.9v-1.7 C25.7,53.4,20,47.6,12.9,47.6z" class="st2"/></g></g></g></svg>